<svg width="48" height="48" viewBox="0 0 48 48" fill="none" xmlns="http://www.w3.org/2000/svg">
<path fill-rule="evenodd" clip-rule="evenodd" d="M6.5232 17.5779C7.13445 17.373 7.80829 17.5815 8.19688 18.096L12.9533 24.3924L17.8116 18.0848C18.2035 17.5761 18.8756 17.3732 19.4835 17.5801C20.0913 17.7871 20.5 18.358 20.5 19.0001V31.0001C20.5 31.8285 19.8284 32.5001 19 32.5001C18.1716 32.5001 17.5 31.8285 17.5 31.0001V23.4058L14.1301 27.781C13.8446 28.1516 13.4026 28.3678 12.9347 28.3656C12.4669 28.3634 12.0269 28.1431 11.7449 27.7698L8.5 23.4743V31.0001C8.5 31.8285 7.82843 32.5001 7 32.5001C6.17157 32.5001 5.5 31.8285 5.5 31.0001V19.0001C5.5 18.3554 5.91194 17.7828 6.5232 17.5779Z" fill="#1B344B"/>
<path fill-rule="evenodd" clip-rule="evenodd" d="M47.0023 13.884C47.6187 14.4375 47.6696 15.3858 47.1161 16.0022L33.6463 31.0022C33.348 31.3344 32.9173 31.5164 32.4712 31.4988C32.0251 31.4813 31.61 31.2659 31.3388 30.9113L24.8086 22.3733C24.3053 21.7153 24.4308 20.7739 25.0888 20.2706C25.7468 19.7673 26.6883 19.8928 27.1915 20.5508L32.6228 27.6519L44.884 13.9978C45.4375 13.3814 46.3859 13.3305 47.0023 13.884Z" fill="#1B344B"/>
<path fill-rule="evenodd" clip-rule="evenodd" d="M6 11H37C38.6569 11 40 12.3431 40 14V14.9468L42.6521 11.9934C42.6531 11.9923 42.6541 11.9912 42.6551 11.9901C41.8286 9.66488 39.6087 8 37 8H6C2.68629 8 0 10.6863 0 14V35C0 38.3137 2.68629 41 6 41H37C40.3137 41 43 38.3137 43 35V25.0762L40 28.417V35C40 36.6569 38.6569 38 37 38H6C4.34315 38 3 36.6569 3 35V14C3 12.3431 4.34315 11 6 11ZM40 23.9269L43 20.5861V19.2886L40 21.6834V23.9269ZM40 21.6832L43 19.2883V16.0961L40 19.4369V21.6832Z" fill="#1B344B"/>
</svg>
